<mxfile host="65bd71144e">
    <diagram id="eT6HJHkEilnoiRqlnaMi" name="Page-1">
        <mxGraphModel dx="1028" dy="868" grid="1" gridSize="10" guides="1" tooltips="1" connect="1" arrows="1" fold="1" page="1" pageScale="1" pageWidth="850" pageHeight="1100" math="0" shadow="0">
            <root>
                <mxCell id="0"/>
                <mxCell id="1" parent="0"/>
                <mxCell id="6" value="AppGame" style="swimlane;fontStyle=1;align=center;verticalAlign=top;childLayout=stackLayout;horizontal=1;startSize=26;horizontalStack=0;resizeParent=1;resizeParentMax=0;resizeLast=0;collapsible=1;marginBottom=0;whiteSpace=wrap;html=1;fillColor=#dae8fc;strokeColor=#6c8ebf;" vertex="1" parent="1">
                    <mxGeometry x="345" y="190" width="160" height="60" as="geometry"/>
                </mxCell>
                <mxCell id="8" value="" style="line;strokeWidth=1;fillColor=none;align=left;verticalAlign=middle;spacingTop=-1;spacingLeft=3;spacingRight=3;rotatable=0;labelPosition=right;points=[];portConstraint=eastwest;strokeColor=inherit;" vertex="1" parent="6">
                    <mxGeometry y="26" width="160" height="8" as="geometry"/>
                </mxCell>
                <mxCell id="9" value="+ main(args: String[]): void" style="text;strokeColor=none;fillColor=none;align=left;verticalAlign=top;spacingLeft=4;spacingRight=4;overflow=hidden;rotatable=0;points=[[0,0.5],[1,0.5]];portConstraint=eastwest;whiteSpace=wrap;html=1;" vertex="1" parent="6">
                    <mxGeometry y="34" width="160" height="26" as="geometry"/>
                </mxCell>
                <mxCell id="10" value="&lt;div&gt;&lt;font style=&quot;color: rgb(3, 3, 3);&quot;&gt;GameController&lt;/font&gt;&lt;/div&gt;" style="swimlane;fontStyle=1;align=center;verticalAlign=top;childLayout=stackLayout;horizontal=1;startSize=26;horizontalStack=0;resizeParent=1;resizeParentMax=0;resizeLast=0;collapsible=1;marginBottom=0;whiteSpace=wrap;html=1;fillColor=#d5e8d4;strokeColor=#82b366;" vertex="1" parent="1">
                    <mxGeometry x="325" y="300" width="200" height="140" as="geometry"/>
                </mxCell>
                <mxCell id="11" value="&lt;font style=&quot;color: rgb(0, 0, 0);&quot;&gt;- sc: Scanner&lt;/font&gt;&lt;div&gt;&lt;font style=&quot;color: rgb(0, 0, 0);&quot;&gt;- view: GameView&lt;/font&gt;&lt;/div&gt;" style="text;strokeColor=none;fillColor=none;align=left;verticalAlign=top;spacingLeft=4;spacingRight=4;overflow=hidden;rotatable=0;points=[[0,0.5],[1,0.5]];portConstraint=eastwest;whiteSpace=wrap;html=1;" vertex="1" parent="10">
                    <mxGeometry y="26" width="200" height="34" as="geometry"/>
                </mxCell>
                <mxCell id="12" value="" style="line;strokeWidth=1;fillColor=none;align=left;verticalAlign=middle;spacingTop=-1;spacingLeft=3;spacingRight=3;rotatable=0;labelPosition=right;points=[];portConstraint=eastwest;strokeColor=inherit;" vertex="1" parent="10">
                    <mxGeometry y="60" width="200" height="8" as="geometry"/>
                </mxCell>
                <mxCell id="13" value="&lt;font style=&quot;color: rgb(0, 0, 0);&quot;&gt;+ initGame(): void&lt;/font&gt;&lt;div&gt;&lt;font style=&quot;color: rgb(0, 0, 0);&quot;&gt;- initRound(game: Game): boolean&lt;/font&gt;&lt;/div&gt;&lt;div&gt;&lt;font style=&quot;color: rgb(0, 0, 0);&quot;&gt;- getDifficultyByIndex(index: int): Difficulty&lt;/font&gt;&lt;/div&gt;&lt;div&gt;&lt;br&gt;&lt;/div&gt;" style="text;strokeColor=none;fillColor=none;align=left;verticalAlign=top;spacingLeft=4;spacingRight=4;overflow=hidden;rotatable=0;points=[[0,0.5],[1,0.5]];portConstraint=eastwest;whiteSpace=wrap;html=1;" vertex="1" parent="10">
                    <mxGeometry y="68" width="200" height="72" as="geometry"/>
                </mxCell>
                <mxCell id="15" value="GameView&lt;div&gt;&lt;br&gt;&lt;/div&gt;" style="swimlane;fontStyle=1;align=center;verticalAlign=top;childLayout=stackLayout;horizontal=1;startSize=26;horizontalStack=0;resizeParent=1;resizeParentMax=0;resizeLast=0;collapsible=1;marginBottom=0;whiteSpace=wrap;html=1;fillColor=#ffe6cc;strokeColor=#d79b00;" vertex="1" parent="1">
                    <mxGeometry x="20" y="320" width="250" height="100" as="geometry"/>
                </mxCell>
                <mxCell id="17" value="" style="line;strokeWidth=1;fillColor=none;align=left;verticalAlign=middle;spacingTop=-1;spacingLeft=3;spacingRight=3;rotatable=0;labelPosition=right;points=[];portConstraint=eastwest;strokeColor=inherit;" vertex="1" parent="15">
                    <mxGeometry y="26" width="250" height="8" as="geometry"/>
                </mxCell>
                <mxCell id="18" value="&lt;font style=&quot;color: rgb(0, 0, 0);&quot;&gt;+ showInitialMenu(): void&lt;/font&gt;&lt;div&gt;&lt;font style=&quot;color: rgb(0, 0, 0);&quot;&gt;+ showDifficultyMenu(): void&lt;/font&gt;&lt;/div&gt;&lt;div&gt;&lt;font style=&quot;color: rgb(0, 0, 0);&quot;&gt;+ showMessage(message: String, skipLine: boolean): void&lt;/font&gt;&lt;/div&gt;" style="text;strokeColor=none;fillColor=none;align=left;verticalAlign=top;spacingLeft=4;spacingRight=4;overflow=hidden;rotatable=0;points=[[0,0.5],[1,0.5]];portConstraint=eastwest;whiteSpace=wrap;html=1;" vertex="1" parent="15">
                    <mxGeometry y="34" width="250" height="66" as="geometry"/>
                </mxCell>
                <mxCell id="19" value="&lt;div&gt;&lt;font style=&quot;color: rgb(10, 10, 10);&quot;&gt;Game&lt;/font&gt;&lt;/div&gt;" style="swimlane;fontStyle=1;align=center;verticalAlign=top;childLayout=stackLayout;horizontal=1;startSize=26;horizontalStack=0;resizeParent=1;resizeParentMax=0;resizeLast=0;collapsible=1;marginBottom=0;whiteSpace=wrap;html=1;strokeColor=#b85450;fillColor=#f8cecc;" vertex="1" parent="1">
                    <mxGeometry x="590" y="308" width="170" height="124" as="geometry"/>
                </mxCell>
                <mxCell id="20" value="&lt;font style=&quot;color: rgb(0, 0, 0);&quot;&gt;- difficulty: Difficulty&lt;/font&gt;&lt;div&gt;&lt;font style=&quot;color: rgb(0, 0, 0);&quot;&gt;- totalAttempts: int&lt;/font&gt;&lt;/div&gt;&lt;div&gt;&lt;font style=&quot;color: rgb(0, 0, 0);&quot;&gt;- attemptsLeft: int&lt;/font&gt;&lt;/div&gt;&lt;div&gt;&lt;font style=&quot;color: rgb(0, 0, 0);&quot;&gt;- randomNumber: int&lt;/font&gt;&lt;/div&gt;" style="text;strokeColor=none;fillColor=none;align=left;verticalAlign=top;spacingLeft=4;spacingRight=4;overflow=hidden;rotatable=0;points=[[0,0.5],[1,0.5]];portConstraint=eastwest;whiteSpace=wrap;html=1;" vertex="1" parent="19">
                    <mxGeometry y="26" width="170" height="64" as="geometry"/>
                </mxCell>
                <mxCell id="21" value="" style="line;strokeWidth=1;fillColor=none;align=left;verticalAlign=middle;spacingTop=-1;spacingLeft=3;spacingRight=3;rotatable=0;labelPosition=right;points=[];portConstraint=eastwest;strokeColor=inherit;" vertex="1" parent="19">
                    <mxGeometry y="90" width="170" height="8" as="geometry"/>
                </mxCell>
                <mxCell id="22" value="+ decrementAttempts(): void" style="text;strokeColor=none;fillColor=none;align=left;verticalAlign=top;spacingLeft=4;spacingRight=4;overflow=hidden;rotatable=0;points=[[0,0.5],[1,0.5]];portConstraint=eastwest;whiteSpace=wrap;html=1;" vertex="1" parent="19">
                    <mxGeometry y="98" width="170" height="26" as="geometry"/>
                </mxCell>
                <mxCell id="23" value="&lt;font style=&quot;color: rgb(8, 8, 8);&quot;&gt;«interface»&lt;br&gt;&lt;b&gt;Difficulty&lt;/b&gt;&lt;/font&gt;" style="html=1;whiteSpace=wrap;fillColor=#e1d5e7;strokeColor=#9673a6;" vertex="1" parent="1">
                    <mxGeometry x="370" y="490" width="110" height="50" as="geometry"/>
                </mxCell>
                <mxCell id="24" value="&lt;div&gt;&lt;font style=&quot;color: rgb(0, 0, 0);&quot;&gt;EasyDifficulty&lt;/font&gt;&lt;/div&gt;" style="swimlane;fontStyle=1;align=center;verticalAlign=top;childLayout=stackLayout;horizontal=1;startSize=26;horizontalStack=0;resizeParent=1;resizeParentMax=0;resizeLast=0;collapsible=1;marginBottom=0;whiteSpace=wrap;html=1;strokeColor=#666666;fillColor=#f5f5f5;fontColor=#333333;" vertex="1" parent="1">
                    <mxGeometry x="110" y="600" width="180" height="80" as="geometry"/>
                </mxCell>
                <mxCell id="26" value="" style="line;strokeWidth=1;fillColor=none;align=left;verticalAlign=middle;spacingTop=-1;spacingLeft=3;spacingRight=3;rotatable=0;labelPosition=right;points=[];portConstraint=eastwest;strokeColor=inherit;" vertex="1" parent="24">
                    <mxGeometry y="26" width="180" height="8" as="geometry"/>
                </mxCell>
                <mxCell id="27" value="+ getChances():int&lt;div&gt;&lt;font style=&quot;color: rgb(0, 0, 0);&quot;&gt;+ getSelectedMessage():String&lt;/font&gt;&lt;/div&gt;" style="text;strokeColor=none;fillColor=none;align=left;verticalAlign=top;spacingLeft=4;spacingRight=4;overflow=hidden;rotatable=0;points=[[0,0.5],[1,0.5]];portConstraint=eastwest;whiteSpace=wrap;html=1;" vertex="1" parent="24">
                    <mxGeometry y="34" width="180" height="46" as="geometry"/>
                </mxCell>
                <mxCell id="36" value="&lt;div&gt;&lt;font style=&quot;color: rgb(0, 0, 0);&quot;&gt;MediumDifficulty&lt;/font&gt;&lt;/div&gt;" style="swimlane;fontStyle=1;align=center;verticalAlign=top;childLayout=stackLayout;horizontal=1;startSize=26;horizontalStack=0;resizeParent=1;resizeParentMax=0;resizeLast=0;collapsible=1;marginBottom=0;whiteSpace=wrap;html=1;strokeColor=#666666;fillColor=#f5f5f5;fontColor=#333333;" vertex="1" parent="1">
                    <mxGeometry x="335" y="600" width="180" height="80" as="geometry"/>
                </mxCell>
                <mxCell id="37" value="" style="line;strokeWidth=1;fillColor=none;align=left;verticalAlign=middle;spacingTop=-1;spacingLeft=3;spacingRight=3;rotatable=0;labelPosition=right;points=[];portConstraint=eastwest;strokeColor=inherit;" vertex="1" parent="36">
                    <mxGeometry y="26" width="180" height="8" as="geometry"/>
                </mxCell>
                <mxCell id="38" value="+ getChances():int&lt;div&gt;&lt;font style=&quot;color: rgb(0, 0, 0);&quot;&gt;+ getSelectedMessage():String&lt;/font&gt;&lt;/div&gt;" style="text;strokeColor=none;fillColor=none;align=left;verticalAlign=top;spacingLeft=4;spacingRight=4;overflow=hidden;rotatable=0;points=[[0,0.5],[1,0.5]];portConstraint=eastwest;whiteSpace=wrap;html=1;" vertex="1" parent="36">
                    <mxGeometry y="34" width="180" height="46" as="geometry"/>
                </mxCell>
                <mxCell id="39" value="&lt;div&gt;&lt;font style=&quot;color: rgb(0, 0, 0);&quot;&gt;HardDifficulty&lt;/font&gt;&lt;/div&gt;" style="swimlane;fontStyle=1;align=center;verticalAlign=top;childLayout=stackLayout;horizontal=1;startSize=26;horizontalStack=0;resizeParent=1;resizeParentMax=0;resizeLast=0;collapsible=1;marginBottom=0;whiteSpace=wrap;html=1;fillColor=#f5f5f5;fontColor=#333333;strokeColor=#666666;" vertex="1" parent="1">
                    <mxGeometry x="550" y="600" width="180" height="80" as="geometry"/>
                </mxCell>
                <mxCell id="40" value="" style="line;strokeWidth=1;fillColor=none;align=left;verticalAlign=middle;spacingTop=-1;spacingLeft=3;spacingRight=3;rotatable=0;labelPosition=right;points=[];portConstraint=eastwest;strokeColor=inherit;" vertex="1" parent="39">
                    <mxGeometry y="26" width="180" height="8" as="geometry"/>
                </mxCell>
                <mxCell id="41" value="+ getChances():int&lt;div&gt;&lt;font style=&quot;color: rgb(0, 0, 0);&quot;&gt;+ getSelectedMessage():String&lt;/font&gt;&lt;/div&gt;" style="text;strokeColor=none;fillColor=none;align=left;verticalAlign=top;spacingLeft=4;spacingRight=4;overflow=hidden;rotatable=0;points=[[0,0.5],[1,0.5]];portConstraint=eastwest;whiteSpace=wrap;html=1;" vertex="1" parent="39">
                    <mxGeometry y="34" width="180" height="46" as="geometry"/>
                </mxCell>
                <mxCell id="42" value="" style="endArrow=block;dashed=1;endFill=0;endSize=12;html=1;exitX=0.5;exitY=0;exitDx=0;exitDy=0;entryX=0;entryY=0.5;entryDx=0;entryDy=0;" edge="1" parent="1" source="24" target="23">
                    <mxGeometry width="160" relative="1" as="geometry">
                        <mxPoint x="350" y="540" as="sourcePoint"/>
                        <mxPoint x="510" y="540" as="targetPoint"/>
                    </mxGeometry>
                </mxCell>
                <mxCell id="43" value="" style="endArrow=block;dashed=1;endFill=0;endSize=12;html=1;exitX=0.5;exitY=0;exitDx=0;exitDy=0;entryX=0.5;entryY=1;entryDx=0;entryDy=0;" edge="1" parent="1" source="36" target="23">
                    <mxGeometry width="160" relative="1" as="geometry">
                        <mxPoint x="350" y="540" as="sourcePoint"/>
                        <mxPoint x="510" y="540" as="targetPoint"/>
                    </mxGeometry>
                </mxCell>
                <mxCell id="44" value="" style="endArrow=block;dashed=1;endFill=0;endSize=12;html=1;exitX=0.5;exitY=0;exitDx=0;exitDy=0;entryX=1;entryY=0.5;entryDx=0;entryDy=0;" edge="1" parent="1" source="39" target="23">
                    <mxGeometry width="160" relative="1" as="geometry">
                        <mxPoint x="350" y="540" as="sourcePoint"/>
                        <mxPoint x="510" y="540" as="targetPoint"/>
                    </mxGeometry>
                </mxCell>
                <mxCell id="45" value="Use" style="endArrow=open;endSize=12;dashed=1;html=1;exitX=0.5;exitY=1;exitDx=0;exitDy=0;exitPerimeter=0;entryX=0.5;entryY=0;entryDx=0;entryDy=0;" edge="1" parent="1" source="13" target="23">
                    <mxGeometry width="160" relative="1" as="geometry">
                        <mxPoint x="350" y="540" as="sourcePoint"/>
                        <mxPoint x="510" y="540" as="targetPoint"/>
                    </mxGeometry>
                </mxCell>
                <mxCell id="49" value="Use" style="endArrow=open;endSize=12;dashed=1;html=1;entryX=0;entryY=0.5;entryDx=0;entryDy=0;" edge="1" parent="1" target="20">
                    <mxGeometry width="160" relative="1" as="geometry">
                        <mxPoint x="530" y="366" as="sourcePoint"/>
                        <mxPoint x="610" y="510" as="targetPoint"/>
                    </mxGeometry>
                </mxCell>
                <mxCell id="50" value="Use" style="endArrow=open;endSize=12;dashed=1;html=1;entryX=1.012;entryY=0.193;entryDx=0;entryDy=0;entryPerimeter=0;" edge="1" parent="1" target="18">
                    <mxGeometry width="160" relative="1" as="geometry">
                        <mxPoint x="326" y="367" as="sourcePoint"/>
                        <mxPoint x="600" y="376" as="targetPoint"/>
                    </mxGeometry>
                </mxCell>
                <mxCell id="51" value="Use" style="endArrow=open;endSize=12;dashed=1;html=1;exitX=0.504;exitY=0.996;exitDx=0;exitDy=0;exitPerimeter=0;" edge="1" parent="1" source="9" target="10">
                    <mxGeometry width="160" relative="1" as="geometry">
                        <mxPoint x="450" y="510" as="sourcePoint"/>
                        <mxPoint x="610" y="510" as="targetPoint"/>
                    </mxGeometry>
                </mxCell>
            </root>
        </mxGraphModel>
    </diagram>
</mxfile>